HIERARCHY
ROOT Hips
{
	OFFSET 0.000000 0.000000 0.000000
	CHANNELS 6 Xposition Yposition Zposition Zrotation Yrotation Xrotation 
	JOINT LHipJoint
	{
		OFFSET 0.000000 0.000000 0.000000
		CHANNELS 3 Zrotation Yrotation Xrotation
		JOINT LeftUpLeg
		{
			OFFSET 1.363060 -1.794630 0.839290
			CHANNELS 3 Zrotation Yrotation Xrotation
			JOINT LeftLeg
			{
				OFFSET 2.448110 -6.726130 0.000000
				CHANNELS 3 Zrotation Yrotation Xrotation
				JOINT LeftFoot
				{
					OFFSET 2.562200 -7.039590 0.000000
					CHANNELS 3 Zrotation Yrotation Xrotation
					JOINT LeftToeBase
					{
						OFFSET 0.157640 -0.433110 2.322550
						CHANNELS 3 Zrotation Yrotation Xrotation
						End Site
						{
							OFFSET 0.000000 0.000000 0.000000
						}
					}
				}
			}
		}
	}
	JOINT RHipJoint
	{
		OFFSET 0.000000 0.000000 0.000000
		CHANNELS 3 Zrotation Yrotation Xrotation
		JOINT RightUpLeg
		{
			OFFSET -1.305520 -1.794630 0.839290
			CHANNELS 3 Zrotation Yrotation Xrotation
			JOINT RightLeg
			{
				OFFSET -2.542530 -6.985550 0.000000
				CHANNELS 3 Zrotation Yrotation Xrotation
				JOINT RightFoot
				{
					OFFSET -2.568260 -7.056230 0.000000
					CHANNELS 3 Zrotation Yrotation Xrotation
					JOINT RightToeBase
					{
						OFFSET -0.164730 -0.452590 2.363150
						CHANNELS 3 Zrotation Yrotation Xrotation
						End Site
						{
							OFFSET 0.000000 0.000000 0.000000
						}
					}
				}
			}
		}
	}
	JOINT LowerBack
	{
		OFFSET 0.000000 0.000000 0.000000
		CHANNELS 3 Zrotation Yrotation Xrotation
		JOINT Spine
		{
			OFFSET 0.028270 2.035590 -0.193380
			CHANNELS 3 Zrotation Yrotation Xrotation
			JOINT Spine1
			{
				OFFSET 0.056720 2.048850 -0.042750
				CHANNELS 3 Zrotation Yrotation Xrotation
				JOINT Neck
				{
					OFFSET 0.000000 0.000000 0.000000
					CHANNELS 3 Zrotation Yrotation Xrotation
					JOINT Neck1
					{
						OFFSET -0.054170 1.746240 0.172020
						CHANNELS 3 Zrotation Yrotation Xrotation
						JOINT Head
						{
							OFFSET 0.104070 1.761360 -0.123970
							CHANNELS 3 Zrotation Yrotation Xrotation
							End Site
							{
								OFFSET 0.000000 0.000000 0.000000
							}
						}
					}
				}
				JOINT LeftShoulder
				{
					OFFSET 0.000000 0.000000 0.000000
					CHANNELS 3 Zrotation Yrotation Xrotation
					JOINT LeftArm
					{
						OFFSET 3.362410 1.200890 -0.311210
						CHANNELS 3 Zrotation Yrotation Xrotation
						JOINT LeftForeArm
						{
							OFFSET 4.983000 -0.000000 -0.000000
							CHANNELS 3 Zrotation Yrotation Xrotation
							JOINT LeftHand
							{
								OFFSET 3.483560 -0.000000 -0.000000
								CHANNELS 3 Zrotation Yrotation Xrotation
								JOINT LeftFingerBase
								{
									OFFSET 0.000000 0.000000 0.000000
									CHANNELS 3 Zrotation Yrotation Xrotation
									JOINT LeftHandIndex1
									{
										OFFSET 0.715260 -0.000000 -0.000000
										CHANNELS 3 Zrotation Yrotation Xrotation
										End Site
										{
											OFFSET 0.000000 0.000000 0.000000
										}
									}
								}
								JOINT LThumb
								{
									OFFSET 0.000000 0.000000 0.000000
									CHANNELS 3 Zrotation Yrotation Xrotation
									End Site
									{
										OFFSET 0.000000 0.000000 0.000000
									}
								}
							}
						}
					}
				}
				JOINT RightShoulder
				{
					OFFSET 0.000000 0.000000 0.000000
					CHANNELS 3 Zrotation Yrotation Xrotation
					JOINT RightArm
					{
						OFFSET -3.136600 1.374050 -0.404650
						CHANNELS 3 Zrotation Yrotation Xrotation
						JOINT RightForeArm
						{
							OFFSET -5.241900 -0.000000 -0.000000
							CHANNELS 3 Zrotation Yrotation Xrotation
							JOINT RightHand
							{
								OFFSET -3.444170 -0.000000 -0.000000
								CHANNELS 3 Zrotation Yrotation Xrotation
								JOINT RightFingerBase
								{
									OFFSET 0.000000 0.000000 0.000000
									CHANNELS 3 Zrotation Yrotation Xrotation
									JOINT RightHandIndex1
									{
										OFFSET -0.622530 -0.000000 -0.000000
										CHANNELS 3 Zrotation Yrotation Xrotation
										End Site
										{
											OFFSET 0.000000 0.000000 0.000000
										}
									}
								}
								JOINT RThumb
								{
									OFFSET 0.000000 0.000000 0.000000
									CHANNELS 3 Zrotation Yrotation Xrotation
									End Site
									{
										OFFSET 0.000000 0.000000 0.000000
									}
								}
							}
						}
					}
				}
			}
		}
	}
}
MOTION
Frames: 10
Frame Time: 0.008333
1.690648 17.546313 34.900175 179.630216 -5.162997 -172.907001 -7.576215 -1.034145 1.392489 -7.113299 -7.773583 -15.867432 0.565702 10.082962 28.220370 0.680641 1.310925 1.696759 0.000100 -0.063500 -0.174500 4.412348 0.418043 0.844112 10.413936 3.334755 -14.995273 -1.490440 -10.242747 29.374480 2.547102 -10.972434 -8.824447 -0.099700 -2.036100 5.605600 -0.182975 -0.268855 -0.896949 -0.098985 -0.921595 -5.287260 2.701534 -0.394220 -2.997283 -2.866001 -1.396189 -18.611145 3.712487 -2.066917 13.752299 0.610200 -1.222900 10.855600 1.191937 -2.910270 -0.520850 -89.215826 1.087579 25.286670 12.749358 -22.259073 -3.074845 -0.380767 -0.370975 17.506219 7.180262 8.920504 1.218900 -7.125000 0.000000 0.000000 -16.803000 38.901600 2.611700 -2.078047 2.772360 -0.561231 88.262404 -3.810917 20.799676 -14.245536 22.391512 -3.547253 1.244509 0.829260 2.732622 -17.980964 -10.268827 3.841300 7.125000 0.000000 0.000000 7.081300 -41.636900 0.590700 
1.688909 17.545393 34.897516 179.629136 -5.134310 -172.929646 -7.576909 -1.029528 1.399666 -7.129134 -7.761711 -15.836031 0.565888 10.083936 28.221211 0.670447 1.338721 1.669471 0.000100 -0.066300 -0.182100 4.412378 0.414717 0.846591 10.403199 3.333214 -14.964163 -1.488505 -10.240386 29.365803 2.538224 -10.945113 -8.818631 -0.100300 -2.042000 5.621900 -0.176920 -0.260951 -0.903050 -0.104674 -0.911568 -5.290940 2.684938 -0.389751 -3.006582 -2.867038 -1.391774 -18.597587 3.716805 -2.064461 13.776845 0.613400 -1.222800 10.865600 1.191140 -2.907630 -0.521699 -89.213084 1.147340 25.276707 12.747689 -22.260135 -3.074675 -0.380725 -0.371620 17.515991 7.176375 8.926252 1.219000 -7.125000 0.000000 0.000000 -16.808100 38.907400 2.610000 -2.081342 2.770889 -0.563023 88.258027 -3.847051 20.903101 -14.287664 22.449807 -3.566579 1.240728 0.840369 2.649607 -17.930442 -10.375529 3.869000 7.125000 0.000000 0.000000 7.149000 -41.752500 0.576000 
1.688500 17.545086 34.897107 179.636266 -5.142208 -172.944195 -7.575570 -1.027803 1.401626 -7.123962 -7.757745 -15.825013 0.567077 10.086201 28.227413 0.675968 1.324013 1.667765 0.000100 -0.070300 -0.193100 4.412820 0.412915 0.847870 10.414728 3.332907 -14.941776 -1.486609 -10.237848 29.356918 2.547535 -10.975416 -8.832475 -0.098100 -2.020200 5.561500 -0.175217 -0.267235 -0.913690 -0.104014 -0.919655 -5.286631 2.681695 -0.394283 -2.991236 -2.860087 -1.381617 -18.604107 3.719173 -2.052218 13.780723 0.614600 -1.216400 10.867900 1.191274 -2.908069 -0.521111 -89.215605 1.148210 25.231107 12.723906 -22.230481 -3.065775 -0.379884 -0.369077 17.544985 7.194549 8.878285 1.215500 -7.125000 0.000000 0.000000 -16.780400 38.860000 2.625700 -2.082662 2.771352 -0.563106 88.252654 -3.814487 20.983443 -14.311237 22.479699 -3.577807 1.238551 0.871028 2.591306 -17.831927 -10.752620 3.983300 7.125000 0.000000 0.000000 7.312100 -42.165200 0.514400 
1.687580 17.544984 34.895675 179.669601 -5.090858 -172.951520 -7.571314 -1.025851 1.406580 -7.100622 -7.726158 -15.824717 0.569444 10.088472 28.231189 0.666937 1.351782 1.651443 0.000100 -0.066800 -0.183500 4.413995 0.412047 0.847427 10.441439 3.368003 -14.921722 -1.483635 -10.234807 29.348915 2.539583 -10.951739 -8.832224 -0.101000 -2.049900 5.643600 -0.140740 -0.242170 -0.928973 -0.110846 -0.887763 -5.294278 2.648712 -0.379253 -3.006925 -2.837707 -1.377059 -18.570775 3.723009 -2.057465 13.793535 0.612900 -1.217600 10.867300 1.188543 -2.905088 -0.521902 -89.189285 1.203018 25.227510 12.707992 -22.213913 -3.060564 -0.382139 -0.372162 17.574905 7.174672 8.950171 1.222100 -7.125000 0.000000 0.000000 -16.815200 38.931500 2.600800 -2.083670 2.769465 -0.563315 88.271620 -3.834408 21.033098 -14.322811 22.497380 -3.590115 1.224108 1.033860 2.579906 -17.194384 -12.823230 4.553100 7.125000 0.000000 0.000000 8.358300 -44.404500 0.123800 
1.686864 17.544881 34.895368 179.667749 -5.096061 -172.955711 -7.570482 -1.025789 1.408023 -7.106523 -7.717383 -15.827579 0.570486 10.090689 28.239201 0.685662 1.300696 1.630474 -0.000000 0.013200 0.036200 4.413996 0.411171 0.849909 10.437739 3.351274 -14.919518 -1.482646 -10.232251 29.341208 2.539504 -10.949041 -8.813938 -0.100000 -2.038900 5.613100 -0.142624 -0.248920 -0.929425 -0.111856 -0.898612 -5.306539 2.644666 -0.383857 -3.037097 -2.842207 -1.364556 -18.539293 3.722987 -2.043214 13.811313 0.615600 -1.213400 10.869800 1.187658 -2.903641 -0.523103 -89.203341 1.251259 25.129618 12.677973 -22.177327 -3.049817 -0.382885 -0.367679 17.636444 7.242912 8.907063 1.227600 -7.125000 0.000000 0.000000 -16.745100 38.891600 2.606300 -2.083765 2.769738 -0.566467 88.271389 -3.849688 21.061898 -14.338902 22.517902 -3.589675 1.235765 0.861909 2.575530 -17.834562 -10.620463 3.936000 7.125000 0.000000 0.000000 7.285800 -42.018200 0.539100 
1.686046 17.544677 34.894755 179.678783 -5.083048 -172.966975 -7.568220 -1.024360 1.411583 -7.102038 -7.698512 -15.824872 0.572200 10.093367 28.246762 0.693564 1.280239 1.615330 0.000100 0.050000 0.137300 4.414198 0.409879 0.851456 10.446491 3.351895 -14.905540 -1.481325 -10.230352 29.335563 2.537441 -10.942453 -8.808085 -0.099700 -2.035900 5.605000 -0.130953 -0.246362 -0.929839 -0.114358 -0.896316 -5.315068 2.631341 -0.382684 -3.058968 -2.837329 -1.354270 -18.516922 3.723130 -2.034480 13.830240 0.616300 -1.210400 10.874800 1.186419 -2.902010 -0.524159 -89.204853 1.297621 25.060964 12.653853 -22.148775 -3.041450 -0.383998 -0.365891 17.680209 7.277866 8.901856 1.232700 -7.125000 0.000000 0.000000 -16.713300 38.888200 2.602400 -2.084192 2.769360 -0.568092 88.275054 -3.861037 21.104069 -14.353279 22.537286 -3.595764 1.235115 0.854162 2.558334 -17.856305 -10.512998 3.902000 7.125000 0.000000 0.000000 7.245600 -41.900300 0.557300 
1.685433 17.544472 34.894244 179.688874 -5.077083 -172.981426 -7.565815 -1.022784 1.415427 -7.096948 -7.678958 -15.822059 0.573595 10.095757 28.253614 0.703977 1.252822 1.605607 0.000200 0.087400 0.240100 4.414320 0.408504 0.853362 10.456416 3.347879 -14.891359 -1.480520 -10.228888 29.331891 2.536016 -10.937798 -8.803918 -0.099200 -2.030800 5.590700 -0.119526 -0.247177 -0.924432 -0.116442 -0.898550 -5.325102 2.618573 -0.383500 -3.086745 -2.831194 -1.342471 -18.493712 3.720359 -2.024139 13.852362 0.615500 -1.207200 10.881300 1.185167 -2.900493 -0.525463 -89.208550 1.347550 24.977126 12.627013 -22.116604 -3.032216 -0.385548 -0.363623 17.727041 7.324981 8.897969 1.240100 -7.125000 0.000000 0.000000 -16.671000 38.886700 2.596000 -2.083998 2.769027 -0.569850 88.279866 -3.872471 21.133388 -14.362392 22.549454 -3.599483 1.234828 0.844849 2.551309 -17.883384 -10.389228 3.863200 7.125000 0.000000 0.000000 7.197500 -41.764300 0.577800 
1.684921 17.544268 34.893937 179.698979 -5.072510 -172.996279 -7.563392 -1.021086 1.419815 -7.093013 -7.656406 -15.820265 0.575033 10.098186 28.260569 0.715633 1.222280 1.598669 0.000400 0.121100 0.332600 4.414357 0.407039 0.855719 10.465334 3.341615 -14.876847 -1.479833 -10.227455 29.328478 2.534338 -10.932423 -8.798276 -0.098600 -2.024800 5.574100 -0.110285 -0.249547 -0.909066 -0.118150 -0.902764 -5.338631 2.607695 -0.384905 -3.127217 -2.823485 -1.329031 -18.468652 3.713488 -2.012623 13.879554 0.612300 -1.204100 10.890500 1.183970 -2.899018 -0.527276 -89.215786 1.406348 24.877320 12.597555 -22.081203 -3.022128 -0.387660 -0.360960 17.777527 7.384568 8.898782 1.250300 -7.125000 0.000000 0.000000 -16.619000 38.890500 2.585800 -2.083131 2.768784 -0.571978 88.285353 -3.891147 21.150676 -14.368290 22.557194 -3.601622 1.234621 0.835588 2.550362 -17.909184 -10.267785 3.824800 7.125000 0.000000 0.000000 7.151300 -41.630900 0.597700 
1.684615 17.544063 34.894039 179.706986 -5.076674 -173.014474 -7.560814 -1.019109 1.424579 -7.087660 -7.633619 -15.818357 0.576339 10.100606 28.267380 0.729408 1.185665 1.598165 0.000500 0.147900 0.406300 4.414342 0.405451 0.858525 10.476405 3.332296 -14.861022 -1.479469 -10.226519 29.326651 2.534094 -10.931629 -8.796760 -0.097900 -2.018100 5.555600 -0.103301 -0.256476 -0.882879 -0.118624 -0.913018 -5.354526 2.600296 -0.388949 -3.177505 -2.814868 -1.313539 -18.445510 3.703214 -1.998945 13.911266 0.607500 -1.200500 10.902600 1.182954 -2.897827 -0.529472 -89.227313 1.469096 24.759404 12.564301 -22.040796 -3.010662 -0.390161 -0.357076 17.832889 7.466747 8.891022 1.263000 -7.125000 0.000000 0.000000 -16.545100 38.886900 2.575000 -2.081567 2.768817 -0.574365 88.291307 -3.911928 21.155251 -14.370623 22.559715 -3.602180 1.234807 0.824095 2.553894 -17.944365 -10.119791 3.778600 7.125000 0.000000 0.000000 7.091800 -41.468500 0.621200 
1.684512 17.543859 34.894346 179.714110 -5.084916 -173.033944 -7.558284 -1.017151 1.429556 -7.083465 -7.609132 -15.817333 0.577377 10.102696 28.273579 0.744232 1.146298 1.601644 0.000700 0.168300 0.462400 4.414267 0.403861 0.861522 10.486297 3.321660 -14.845346 -1.479478 -10.225849 29.326065 2.534549 -10.933380 -8.797429 -0.097400 -2.012300 5.539700 -0.099863 -0.265992 -0.850468 -0.118835 -0.926698 -5.371943 2.595072 -0.394420 -3.233397 -2.803937 -1.296599 -18.426934 3.689861 -1.983647 13.946802 0.600700 -1.196500 10.918000 1.181885 -2.896967 -0.531930 -89.240997 1.532205 24.623858 12.525900 -21.993553 -2.997434 -0.393131 -0.352054 17.894712 7.570478 8.876781 1.278400 -7.125000 0.000000 0.000000 -16.450600 38.877800 2.563200 -2.079386 2.769052 -0.576859 88.299022 -3.931592 21.146026 -14.368489 22.555691 -3.600978 1.234430 0.823699 2.561295 -17.937739 -10.115507 3.775500 7.125000 0.000000 0.000000 7.097200 -41.463000 0.622700 
